<svg aria-hidden="true" style="position: absolute; width: 0; height: 0; overflow: hidden;" version="1.1" xmlns="http://www.w3.org/2000/svg" xmlns:xlink="http://www.w3.org/1999/xlink">
<defs>
<symbol id="twitter" viewBox="0 0 36 32">
<path d="M32.3 9.358c0.022 0.328 0.022 0.656 0.022 0.984 0 10.008-7.424 21.54-20.992 21.54-4.18 0-8.064-1.244-11.33-3.4 0.594 0.070 1.164 0.094 1.78 0.094 0.005 0 0.011 0 0.017 0 3.476 0 6.668-1.22 9.169-3.255l-0.027 0.021c-3.242-0.070-5.96-2.25-6.896-5.25 0.456 0.070 0.912 0.116 1.392 0.116 0.664 0 1.326-0.092 1.942-0.256-3.378-0.704-5.916-3.752-5.916-7.432v-0.094c0.958 0.559 2.1 0.909 3.319 0.96l0.015 0c-1.998-1.394-3.288-3.68-3.288-6.269 0-0.012 0-0.023 0-0.035v0.002c0-1.406 0.364-2.696 1.004-3.82 3.632 4.594 9.092 7.594 15.214 7.92-0.113-0.519-0.179-1.117-0.182-1.73v-0.002c0-4.172 3.288-7.572 7.376-7.572 2.124 0 4.042 0.914 5.39 2.392 1.768-0.357 3.337-0.992 4.743-1.863l-0.061 0.035c-0.562 1.77-1.709 3.219-3.21 4.154l-0.032 0.018c1.576-0.189 3.012-0.601 4.341-1.209l-0.090 0.037c-1.027 1.523-2.253 2.817-3.66 3.885l-0.040 0.029z"></path>
</symbol>
<symbol id="heart" viewBox="0 0 37 32">
<path d="M26.462 1.231c-2.786 0-4.854 1.127-6.319 2.683-1.465 1.561-2.24 2.474-2.297 2.688-0.057-0.214-0.805-1.127-2.297-2.686-1.494-1.558-3.36-2.686-6.319-2.686-4.687 0.231-8.482 3.579-8.615 8.057 0 1.396 0.258 4.081 1.925 7.168 1.664 3.089 6.72 7.897 15.306 14.314 8.559-6.417 13.698-11.2 15.335-14.314s1.895-5.826 1.895-7.168c-0.135-4.539-3.855-7.823-8.615-8.057z"></path>
</symbol>
<symbol id="github" viewBox="0 0 30 32">
<path d="M15.158 0.421c-8.376 0-15.158 6.956-15.158 15.542 0 6.877 4.339 12.685 10.365 14.744 0.758 0.136 1.043-0.33 1.043-0.738 0-0.371-0.020-1.593-0.020-2.895-3.808 0.719-4.793-0.952-5.096-1.826-0.17-0.446-0.909-1.826-1.553-2.195-0.532-0.291-1.29-1.011-0.020-1.031 1.194-0.019 2.046 1.128 2.331 1.593 1.364 2.351 3.544 1.691 4.414 1.282 0.133-1.011 0.531-1.689 0.967-2.078-3.372-0.387-6.897-1.728-6.897-7.673 0-1.689 0.588-3.089 1.553-4.177-0.152-0.387-0.68-1.981 0.152-4.118 0 0 1.27-0.408 4.17 1.593 1.128-0.334 2.423-0.526 3.764-0.526 0.009 0 0.018 0 0.027 0h-0.001c1.287 0 2.577 0.175 3.789 0.525 2.897-2.021 4.168-1.593 4.168-1.593 0.834 2.137 0.303 3.731 0.152 4.118 0.965 1.088 1.553 2.467 1.553 4.177 0 5.964-3.544 7.286-6.915 7.673 0.549 0.487 1.022 1.418 1.022 2.877 0 2.078-0.019 3.749-0.019 4.273 0 0.408 0.285 0.893 1.043 0.738 3.094-1.099 5.65-3.072 7.444-5.621l0.032-0.048c1.783-2.527 2.85-5.67 2.85-9.062 0-0.004 0-0.008 0-0.013v0.001c0-8.588-6.782-15.542-15.158-15.542z"></path>
</symbol>
</defs>
</svg>
