<svg viewBox="0 0 18 16" fill="none" xmlns="http://www.w3.org/2000/svg">
  <path d="M16.15 4.679c.011.164.011.328.011.492 0 5.004-3.712 10.77-10.496 10.77-2.09 0-4.032-.622-5.665-1.7.297.035.582.047.89.047a7.27 7.27 0 0 0 4.58-1.617c-1.621-.035-2.98-1.125-3.448-2.625.228.035.456.058.696.058.332 0 .663-.046.971-.128C2 9.624.731 8.1.731 6.26v-.047a3.644 3.644 0 0 0 1.667.48A3.81 3.81 0 0 1 .754 3.542c0-.703.182-1.348.502-1.91 1.816 2.297 4.546 3.797 7.607 3.96a4.38 4.38 0 0 1-.091-.866C8.772 2.64 10.416.94 12.46.94c1.062 0 2.021.457 2.695 1.196a7.153 7.153 0 0 0 2.341-.914 3.759 3.759 0 0 1-1.621 2.086A7.249 7.249 0 0 0 18 2.722a8.048 8.048 0 0 1-1.85 1.957Z" fill="#9E9E9E"/>
</svg>